<svg width="460" height="350" viewBox="0 0 460 350" fill="none" xmlns="http://www.w3.org/2000/svg">
<path d="M165.4 70.0001L165.2 70.2001C163.8 71.7001 162.2 72.4001 160.7 72.4001L163.5 67.5001C165.3 64.4001 163.6 61.4001 160.8 61.4001C158.5 61.4001 156.7 62.3001 155 65.3001L153.5 67.9001L152.3 70.0001L152.1 70.2001C149.9 72.7001 147.8 74.7001 146.5 74.7001C145.8 74.7001 145.5 74.2001 146.2 73.1001L152.6 61.9001H155L155.9 60.5001H153.4L156.2 55.6001H153.2L150.4 60.5001H147.7L146.8 61.9001H149.5L143.5 72.3001C142.2 74.5001 143.1 76.6001 145.5 76.6001C147.2 76.6001 149.2 75.3001 151 73.5001C151 77.3001 156.3 78.1001 159.5 74.0001H160.2C162 74.0001 164.8 72.9001 166.3 71.1001C166.3 70.6001 165.8 70.2001 165.4 70.0001ZM159 70.2001H158.9C157.9 70.2001 157.1 71.0001 157.1 72.0001C157.1 72.4001 157.2 72.7001 157.4 73.0001V73.1001C156 75.5001 152.6 75.1001 154.3 71.9001L156.6 68.0001L158 65.6001C160.1 62.0001 163 63.4001 161.2 66.5001L159 70.2001Z" fill="#766458"/>
<path d="M206.9 70.0001L206.7 70.2001C204.5 72.7001 201.8 74.7001 199.7 74.7001C197.9 74.7001 196.8 73.5001 198.1 71.1001L198.4 70.6001C200.3 71.4001 204 71.0001 206.2 67.1001L206.6 66.4001C208.2 63.6001 206.7 61.6001 204.2 61.6001C201.8 61.6001 199.9 62.9001 198.6 65.1001L195.7 70.1001L195.5 70.3001C193.3 72.8001 191.2 74.8001 189.9 74.8001C189.2 74.8001 188.9 74.3001 189.6 73.2001L193.9 65.6001C195.2 63.3001 194 61.7001 192.3 61.7001C191 61.7001 189.6 62.4001 188.1 64.0001L192.9 55.7001H189.9L181.6 70.0001L181.4 70.2001C179.2 72.7001 177.1 74.7001 175.8 74.7001C175.1 74.7001 174.8 74.2001 175.5 73.1001L181.9 61.9001H184.3L185.2 60.5001H182.7L185.5 55.6001H182.5L179.7 60.5001H177L176.1 61.9001H178.8L172.8 72.3001C171.5 74.5001 172.4 76.6001 174.8 76.6001C176 76.6001 177.3 76.0001 178.6 75.0001L177.8 76.3001H180.8L185.3 68.4001C189.9 62.6001 191.9 63.4001 190.7 65.6001L186.8 72.4001C185.5 74.6001 186.4 76.7001 188.8 76.7001C190.6 76.7001 192.6 75.3001 194.4 73.5001C194.5 75.4001 196.1 76.7001 198.5 76.7001C201.9 76.7001 205.3 74.1001 207.7 71.2001C207.8 70.6001 207.3 70.2001 206.9 70.0001ZM201.2 65.8001C202.9 62.8001 206 63.3001 204.2 66.4001L203.8 67.1001C202.4 69.5001 200.4 69.5001 199.3 69.1001L201.2 65.8001Z" fill="#766458"/>
<path d="M316 70.0001L315.8 70.2001C314.7 71.5001 313.4 72.6001 312.2 73.5001C313.2 70.6001 312.9 66.3001 314.8 62.4001L312.6 61.2001C311.4 62.9001 308.7 66.8001 305.9 70.0001L305.7 70.2001C303.5 72.7001 301.4 74.7001 300.1 74.7001C299.4 74.7001 299.1 74.2001 299.8 73.1001L306.2 61.9001H303.2L297.9 71.2001C295.6 73.3001 293.9 74.4001 293.3 74.2001C292.6 73.9001 293.3 72.8001 293.7 72.1001L299.5 61.9001H296.5L291.8 70.0001L291.6 70.2001C290.2 71.7001 288.6 72.4001 287.1 72.4001L289.9 67.5001C291.7 64.4001 290 61.4001 287.2 61.4001C284.9 61.4001 283.1 62.3001 281.4 65.3001L279.9 67.9001L278.7 70.0001L278.5 70.2001C276.3 72.7001 273.6 74.7001 271.5 74.7001C269.7 74.7001 268.6 73.5001 269.9 71.1001L270.2 70.6001C272.1 71.4001 275.8 71.0001 278 67.1001L278.4 66.4001C280 63.6001 278.5 61.6001 276 61.6001C273.6 61.6001 271.7 62.9001 270.4 65.1001L267.5 70.1001L267.3 70.3001C264.8 73.2001 262.7 75.0001 260.3 76.0001L267 64.5001H265.2C265.2 63.3001 263.9 61.6001 262.1 61.6001C260.5 61.6001 258.2 62.9001 257 65.1001L254.1 70.1001L253.9 70.3001C251.7 72.8001 249.6 74.8001 248.3 74.8001C247.6 74.8001 247.3 74.3001 248 73.2001L251 68.0001C252 66.2001 251.5 65.1001 250.6 63.9001L248.9 61.9001C248.5 61.4001 248.5 60.7001 249.1 60.2001L247.5 58.5001C245.8 60.0001 245.7 61.7001 246.7 63.1001L247 63.4001C245.7 65.3001 243.9 67.8001 241.9 70.1001L241.7 70.3001C240.3 71.8001 238.7 72.5001 237.2 72.5001L240 67.6001C241.8 64.5001 240.1 61.5001 237.3 61.5001C235 61.5001 233.2 62.4001 231.5 65.4001L230 68.0001L228.8 70.1001L228.6 70.3001C226.1 73.2001 224 75.0001 221.6 76.0001L228.3 64.5001H226.5C226.5 63.3001 225.2 61.6001 223.4 61.6001C221.8 61.6001 219.5 62.9001 218.3 65.1001L214.1 72.4001C212.8 74.6001 213.7 76.7001 216.1 76.7001C216.9 76.7001 217.9 76.3001 219 75.7001L218.2 77.1001C214.2 78.3001 211.6 80.0001 211.6 82.2001C211.6 85.1001 216 85.7001 218.2 82.0001L220.5 78.1001C222.9 77.4001 225.2 75.9001 227.7 73.6001C227.7 77.4001 233 78.2001 236.2 74.1001H236.9C238.7 74.1001 241.5 73.0001 243 71.2001C244.4 69.5001 245.6 68.0001 248 64.8001L248.4 65.3001C248.8 65.8001 248.9 66.4001 248.6 67.0001L245.4 72.5001C244.1 74.7001 245 76.8001 247.4 76.8001C248.9 76.8001 250.6 75.8001 252.2 74.4001C252.2 75.8001 253.1 76.8001 254.8 76.8001C255.6 76.8001 256.6 76.4001 257.7 75.8001L257 77.0001C253 78.2001 250.4 79.9001 250.4 82.1001C250.4 85.0001 254.8 85.6001 257 81.9001L259.3 78.0001C261.7 77.2001 264.1 75.8001 266.6 73.4001C266.7 75.3001 268.2 76.6001 270.7 76.6001C273.1 76.6001 275.6 75.2001 277.6 73.4001C277.5 77.3001 282.9 78.1001 286.1 74.0001H286.8C287.7 74.0001 289 73.7001 290.1 73.1001C289.3 75.2001 290 76.6001 291.7 76.6001C293.3 76.6001 295.2 75.1001 296.6 73.7001C296.3 75.3001 297.3 76.6001 299.2 76.6001C301.7 76.6001 304.5 74.0001 307 71.1001C308.7 69.1001 310.2 67.0001 311.3 65.6001C310.1 68.7001 310.8 74.3001 307.9 74.3001C306.9 74.3001 306.5 73.2001 306.5 73.2001L304.6 74.2001C304.6 74.2001 305.1 76.6001 307.9 76.6001C308.2 76.6001 308.4 76.6001 308.7 76.5001H308.8C311.9 76.1001 314.9 73.7001 317.1 71.1001C317 70.6001 316.5 70.1001 316 70.0001ZM273.1 65.8001C274.8 62.8001 277.9 63.3001 276.1 66.4001L275.7 67.1001C274.3 69.5001 272.3 69.5001 271.2 69.1001L273.1 65.8001ZM215.9 81.4001C215.3 82.5001 214.3 82.4001 214.3 81.5001C214.3 80.7001 215 79.8001 217.3 78.9001L215.9 81.4001ZM217.3 74.7001C216.6 74.7001 216.3 74.2001 217 73.1001L221.2 65.8001C222.8 63.0001 226 63.7001 224.5 66.4001L222.2 70.4001C220.4 73.3001 218.5 74.7001 217.3 74.7001ZM235.7 70.2001H235.6C234.6 70.2001 233.8 71.0001 233.8 72.0001C233.8 72.4001 233.9 72.7001 234.1 73.0001V73.1001C232.7 75.5001 229.3 75.1001 231 71.9001L233.3 68.0001L234.7 65.6001C236.8 62.0001 239.7 63.4001 237.9 66.5001L235.7 70.2001ZM254.5 81.4001C253.9 82.5001 252.9 82.4001 252.9 81.5001C252.9 80.7001 253.6 79.8001 255.9 78.9001L254.5 81.4001ZM255.9 74.7001C255.2 74.7001 254.9 74.2001 255.6 73.1001L259.8 65.8001C261.4 63.0001 264.6 63.7001 263.1 66.4001L260.8 70.4001C259 73.3001 257.1 74.7001 255.9 74.7001ZM285.4 70.2001H285.3C284.3 70.2001 283.5 71.0001 283.5 72.0001C283.5 72.4001 283.6 72.7001 283.8 73.0001V73.1001C282.4 75.5001 279 75.1001 280.7 71.9001L283 68.0001L284.4 65.6001C286.5 62.0001 289.4 63.4001 287.6 66.5001L285.4 70.2001Z" fill="#766458"/>
<path d="M130.3 66.8H101.4V68.8H130.3V66.8Z" fill="#766458"/>
<path d="M357.3 66.8H328.4V68.8H357.3V66.8Z" fill="#766458"/>
<path d="M163.2 0H170.9L169.7 44.9H155.2L153.2 26.4L151.2 44.9H136.6L135.5 0H143.1L143.7 37.2H144.5L149.4 0H157L161.9 37.2H162.7L163.2 0Z" fill="#81B3D3"/>
<path d="M195 37.2V45H174.1V0H195V7.7H181.7V18.5H192.3V26.2H181.7V37.1H195V37.2Z" fill="#81B3D3"/>
<path d="M216.4 37.2V45H198.1V0H205.7V37.2H216.4Z" fill="#81B3D3"/>
<path d="M232.6 28.4L240.3 26.6V40.2C240.3 42.8 238.1 44.9 235.6 44.9H224.1C221.5 44.9 219.4 42.7 219.4 40.2V4.7C219.4 2.1 221.5 0 224.1 0H235.6C238.1 0 240.3 2.1 240.3 4.7V13.8L232.6 15.6V7.6H227.1V37.1H232.6V28.4Z" fill="#81B3D3"/>
<path d="M261.1 0C263.6 0 265.8 2.1 265.8 4.7V40.1C265.8 42.7 263.6 44.8 261.1 44.8H249.6C247 44.8 244.9 42.6 244.9 40.1V4.7C244.9 2.1 247 0 249.6 0H261.1ZM258.1 7.7H252.6V37.2H258.1V7.7Z" fill="#81B3D3"/>
<path d="M290.8 0H298.4V44.9H290.8V22.8L287.7 34.2H280.2L277.2 22.8V44.9H269.6V0H277.2L284 21.7L290.8 0Z" fill="#81B3D3"/>
<path d="M323.1 37.2V45H302.2V0H323.1V7.7H309.8V18.5H320.4V26.2H309.8V37.1H323.1V37.2Z" fill="#81B3D3"/>
<path d="M44.5 157.6C40.9 154.6 36.4 152.6 31.6 152.6C28 152.6 23.2999 154.7 23.2999 158.9C23.2999 163.3 28.6 165 31.9 166L36.9 167.5C47.2999 170.6 55.4 175.8 55.4 187.9C55.4 195.3 53.6 203 47.7 208C41.7999 213 34 215 26.5 215C17.1 215 7.79995 211.8 0.199951 206.5L8.29995 191C13.2 195.3 18.9 198.7 25.6 198.7C30.2 198.7 35 196.4 35 191.2C35 185.7 27.4 183.9 23.2 182.7C11 179.1 2.99995 176 2.99995 161.5C2.99995 146.3 13.7999 136.4 28.7999 136.4C36.2999 136.4 45.6 138.8 52.2 142.6L44.5 157.6Z" fill="white"/>
<path d="M91.7999 154.8V167.3H113.7V183.8H91.7999V196.7H115V213.2H72.3999V138.4H115V154.9L91.7999 154.8Z" fill="white"/>
<path d="M129.4 138.4H157C177.8 138.4 195 154.8 195 175.8C195 196.8 177.7 213.2 157 213.2H129.4V138.4ZM148.9 196.7H153.3C164.9 196.7 174.8 190.3 174.8 175.8C174.8 162.4 166 154.9 153.5 154.9H148.9V196.7Z" fill="white"/>
<path d="M286.9 174.4C286.9 198.6 269.5 215.7 245.5 215.7C221.5 215.7 204.1 198.6 204.1 174.4C204.1 151.8 224 135.9 245.5 135.9C267 135.9 286.9 151.8 286.9 174.4ZM224.3 174.5C224.3 187.4 233.8 196.8 245.4 196.8C257 196.8 266.5 187.4 266.5 174.5C266.5 164.2 257 154.7 245.4 154.7C233.9 154.7 224.3 164.2 224.3 174.5Z" fill="white"/>
<path d="M297.2 138.4H316.7L352.3 184.2H352.5V138.4H372V213.2H352.5L316.9 167.3H316.7V213.2H297.2V138.4Z" fill="white"/>
<path d="M407.3 200.2L402.1 213.2H381.5L410.3 138.4H431.5L459.7 213.2H439L434.1 200.2H407.3ZM420.9 161.5H420.7L412.7 185.3H428.9L420.9 161.5Z" fill="white"/>
<path d="M108.1 287.7C115.8 285.1 116.3 275.5 108.8 275.5C106.7 275.5 104.2 277 102.5 279.9L92.3 297.6C91.8 298.4 91.4 299.1 90.8 299.8C88.2 296.2 88.9 290.8 92.6 288.4L91.1 286.5C83.1 291.6 85.5 306.2 98.8 306.2C110.1 306.2 115.4 292.6 108.1 287.7ZM98.7 303.3C96.4 303.3 94.7 302.8 93.2 302C93.9 301.2 94.5 300.3 95.1 299.3L101.5 288.2L102.5 288.3C111.4 290.2 107.9 303.3 98.7 303.3ZM102.8 286L105.9 280.7C108.7 275.9 112.2 278.7 110.3 282.3C108.8 285.1 106.7 285.9 102.8 286Z" fill="white"/>
<path d="M140.2 300C139.6 302.2 140.8 304.1 143.3 304.1C144.8 304.1 146.7 303.1 148.6 301.6C148.8 303.1 150 304.1 151.9 304.1C153.9 304.1 156.1 302.7 158.3 300.7C157.9 302.7 158.8 304.1 160.7 304.1C162.8 304.1 165.1 302.2 166.9 300.5C166.5 302.5 167.7 304.1 170.1 304.1C173.2 304.1 176.8 300.7 180 297.1C180 297 179.9 297 179.9 296.9C182 294.5 183.8 291.9 185.2 290.1C183.7 294 184.5 301.1 180.9 301.1C179.6 301.1 179.1 299.7 179.1 299.7L176.7 300.9C176.7 300.9 177.4 304 180.9 304C181.3 304 181.6 304 182 303.9H182.1C184.9 303.5 187.6 301.8 190 299.7C190.1 302.2 192 304 195.1 304C199.4 304 203.7 300.6 206.8 297C206.5 296.5 205.9 295.9 205.4 295.7L205.1 296C202.4 299.2 198.9 301.7 196.2 301.7C193.9 301.7 192.5 300.2 194.2 297.2L194.6 296.5C197 297.5 201.6 297 204.5 292.1L205 291.2C207 287.7 205.1 285.1 202 285.1C198.9 285.1 196.5 286.7 194.9 289.5L191.2 295.8H191.1L190.8 296.1C189.4 297.7 187.7 299.2 186.2 300.2C187.4 296.6 187.1 291 189.5 286.2L186.7 284.7C185.1 286.9 181.7 291.8 178.3 295.8L178.4 295.9L178.3 296.1C175.6 299.3 172.9 301.8 171.2 301.8C170.4 301.8 169.9 301.2 170.8 299.7L178.9 285.5H175.1L168.4 297.3C165.5 299.9 163.3 301.4 162.6 301.1C161.7 300.7 162.6 299.3 163.1 298.5L170.5 285.6H166.7L160.7 296C160.6 295.9 160.5 295.9 160.4 295.8L160.1 296.1C157.4 299.3 154.7 301.8 153 301.8C152.2 301.8 151.7 301.2 152.6 299.7L158.7 289H156.5C156.6 287.4 155 285.2 152.5 285.2C150.5 285.2 147.6 286.8 146 289.6L142.2 296.2C142 296 141.8 295.9 141.6 295.8L141.3 296.1C138.6 299.3 135.1 301.8 132.4 301.8C130.1 301.8 128.7 300.3 130.4 297.3L134.3 290.5C136.5 286.7 140.4 287.4 138.1 291.3L137.6 292.2H140.7L141.2 291.3C143.2 287.8 141.3 285.2 138.2 285.2C135.1 285.2 132.7 286.8 131.1 289.6L127.3 296.1C127.2 296 127.1 296 127 295.9L126.7 296.2C124 299.4 120.5 301.9 117.8 301.9C115.5 301.9 114.1 300.4 115.8 297.4L116.2 296.7C118.6 297.7 123.2 297.2 126.1 292.3L126.6 291.4C128.6 287.9 126.7 285.3 123.6 285.3C120.5 285.3 118.1 286.9 116.5 289.7L112.5 296.5C110.1 300.5 112.2 304.3 116.7 304.3C120 304.3 123.4 302.3 126.1 299.7C126 302.3 128 304.3 131.2 304.3C134.4 304.1 137.5 302.3 140.2 300ZM198.2 290.4C200.4 286.6 204.3 287.3 202 291.2L201.5 292.1C199.7 295.2 197.2 295.1 195.8 294.6L198.2 290.4ZM144 299.7L149.3 290.5C151.3 287 155.4 287.9 153.5 291.3L150.5 296.5C148.2 300.1 145.9 301.8 144.4 301.8C143.6 301.7 143.1 301.2 144 299.7ZM119.8 290.4C122 286.6 125.9 287.3 123.6 291.2L123.1 292.1C121.3 295.2 118.8 295.1 117.4 294.6L119.8 290.4Z" fill="white"/>
<path d="M248.4 304.1C252.7 304.1 257 300.7 260.1 297.1C259.8 296.6 259.2 296 258.7 295.8L258.4 296.1C255.7 299.3 252.2 301.8 249.5 301.8C247.2 301.8 245.8 300.3 247.5 297.3L247.9 296.6C250.3 297.6 254.9 297.1 257.8 292.2L258.3 291.3C260.3 287.8 258.4 285.2 255.3 285.2C252.2 285.2 249.8 286.8 248.2 289.6L244.5 295.9C244.5 295.9 244.4 295.9 244.4 295.8L244.1 296.1C241.4 299.3 238.7 301.8 237 301.8C236.2 301.8 235.7 301.2 236.6 299.7L242.1 290.1C243.7 287.2 242.2 285.1 240.1 285.1C238.5 285.1 236.7 286 234.8 288L240.9 277.5H237L226.3 296C226.2 295.9 226 295.8 225.9 295.7L225.6 296C222.9 299.2 220.2 301.7 218.5 301.7C217.7 301.7 217.2 301.1 218.1 299.6L226.2 285.4H229.3L230.4 283.6H227.3L230.9 277.4H227.1L223.5 283.6H220.1L219 285.4H222.5L214.9 298.6C213.3 301.4 214.4 304 217.5 304C219.4 304 221.4 302.8 223.5 301L222 303.6H225.8L231.6 293.6C237.4 286.3 240 287.2 238.4 290L233.5 298.6C231.9 301.4 233 304 236.1 304C238.4 304 241 302.2 243.4 299.8C243.4 302.3 245.3 304.1 248.4 304.1ZM251.5 290.4C253.7 286.6 257.6 287.3 255.3 291.2L254.8 292.1C253 295.2 250.5 295.1 249.1 294.6L251.5 290.4Z" fill="white"/>
<path d="M363.4 295.8L363.1 296.1C360.4 299.3 357.7 301.8 356 301.8C355.2 301.8 354.7 301.2 355.6 299.7L368.4 277.5H364.6L359 287.1C358.3 286 357.1 285.1 355.5 285.1C353.5 285.1 350.6 286.7 349 289.5L345.3 295.9C345.2 295.9 345.1 295.8 345.1 295.8L344.8 296.1C342.1 299.3 339.4 301.8 337.7 301.8C336.9 301.8 336.4 301.2 337.3 299.7L342.8 290.1C344.4 287.2 342.9 285.1 340.8 285.1C339.2 285.1 337.4 286 335.5 287.9L336.9 285.4H333.1L327 295.9C326.9 295.8 326.8 295.7 326.6 295.7L326.3 296C323.6 299.2 320.9 301.7 319.2 301.7C318.4 301.7 317.9 301.1 318.8 299.6L324.9 288.9H323C323.1 287.3 321.5 285.1 319 285.1C317 285.1 314.1 286.7 312.5 289.5L308.8 295.8L308.6 296C305.9 299.2 303.2 301.7 301.5 301.7C300.7 301.7 300.2 301.1 301.1 299.6L304.9 293C306.2 290.7 305.6 289.4 304.4 287.9L302.3 285.3C301.8 284.6 301.8 283.8 302.5 283.1L300.5 280.9C298.3 282.8 298.2 285 299.5 286.7L299.8 287.1C298.1 289.5 295.9 292.7 293.4 295.6C293.5 295.7 293.6 295.8 293.7 295.9C290.6 299.5 287.9 301.8 284.9 303.1L289.7 294.9H286L285.6 295.6C283.6 299.1 281.3 301.7 278.3 301.7C275.7 301.7 275.2 299.1 277.5 295.2L278.6 293.3C279.3 293.4 280 293.5 280.8 293.5C294.3 293.5 300.8 275.4 288.9 275.4C286.8 275.4 284.3 276.9 282.6 279.8L276.7 290C274.5 288.8 273.3 286.7 273.3 284.6C273.3 282.8 274.1 281.1 275.7 279.8L274.5 277.6C271.8 279.5 270.6 282.1 270.6 284.7C270.6 287.7 272.3 290.6 275.4 292.2L274.3 294.2C271.6 298.8 272.1 303.9 277.5 303.9C279.1 303.9 280.5 303.4 281.6 302.7L280.6 304.4C275.5 306 272.3 308 272.3 310.9C272.3 314.5 277.9 315.3 280.6 310.6L283.5 305.6C287.4 304.4 291.3 301.7 295.5 296.8C295.4 296.7 295.4 296.6 295.3 296.4C297 294.4 298.4 292.5 301.3 288.6L301.8 289.2C302.3 289.8 302.5 290.6 302 291.4L298 298.4C296.4 301.2 297.5 303.8 300.6 303.8C302.5 303.8 304.6 302.6 306.6 300.8C306.6 302.5 307.7 303.8 309.9 303.8C311.4 303.8 313.3 302.8 315.2 301.3C315.4 302.8 316.6 303.8 318.5 303.8C320.3 303.8 322.3 302.7 324.2 301L322.8 303.4H326.6L332.4 293.3C338.2 286 340.8 287 339.1 289.8L334.2 298.4C332.6 301.2 333.7 303.8 336.8 303.8C338.8 303.8 341 302.4 343.2 300.5C343 302.4 344.2 303.8 346.5 303.8C348 303.8 349.9 302.8 351.8 301.3C352 302.8 353.2 303.8 355.1 303.8C358.2 303.8 361.8 300.4 365 296.8C364.6 296.6 363.9 296 363.4 295.8ZM285.5 281.6C286.6 279.7 287.9 278.8 288.9 278.8C294.9 278.8 290.7 291.1 280.8 291.1H280L285.5 281.6ZM277.4 310.2C276.6 311.6 275.3 311.4 275.3 310.4C275.3 309.4 276.2 308.3 279.1 307.2L277.4 310.2ZM317.1 296.4C314.8 300 312.5 301.7 311 301.7C310.2 301.7 309.7 301.1 310.6 299.6L315.9 290.4C317.9 286.9 322 287.8 320.1 291.2L317.1 296.4ZM353.8 296.2C351.5 300 349.2 301.7 347.6 301.7C346.8 301.7 346.3 301.1 347.2 299.6L352.5 290.4C354.5 286.9 358.6 287.8 356.7 291.2L353.8 296.2Z" fill="white"/>
<path d="M236.7 331.8L236.4 332.1C233.7 335.3 231 337.8 229.3 337.8C228.5 337.8 228 337.2 228.9 335.7L234.4 326.1C236 323.2 234.5 321.1 232.4 321.1C230.8 321.1 229 322 227.1 323.9L228.5 321.4H224.7L218.6 332C218.4 331.9 218.3 331.8 218.1 331.7L217.8 332C216.1 333.9 214 334.8 212.1 334.8L215.7 328.6C218 324.6 215.9 320.9 212.3 320.9C209.4 320.9 207.1 322.1 204.9 325.9L203 329.1L201.4 331.9C201.3 331.8 201.2 331.8 201.1 331.7L200.8 332C197.7 335.6 195 337.9 192 339.2L202.4 321.4H198.6L191.9 333.1C189 335.8 186.7 337.3 186 337C185.1 336.6 186 335.2 186.5 334.4L193.9 321.5H190.1L184 332C183.9 331.9 183.8 331.9 183.7 331.8L183.4 332.1C180.7 335.3 178 337.8 176.3 337.8C175.5 337.8 175 337.2 175.9 335.7L181.4 326.1C183 323.2 181.5 321.1 179.4 321.1C177.8 321.1 176 322 174.1 323.9L175.5 321.4H171.7L165.6 331.9C165.5 331.8 165.4 331.7 165.2 331.7L164.9 332C162.2 335.2 159.5 337.7 157.8 337.7C157 337.7 156.5 337.1 157.4 335.6L163.5 324.9H161.3C161.4 323.3 159.8 321.1 157.3 321.1C155.3 321.1 152.4 322.7 150.8 325.5L146.9 332.3C146.6 332.1 146.3 331.9 146.1 331.8L145.8 332.1C143.1 335.3 139.7 337.8 136 337.8C133.4 337.8 131.8 335.2 134.1 331.3L135.2 329.4C135.9 329.5 136.6 329.6 137.4 329.6C141.4 329.6 146 327.5 149 322.3C150.1 320.4 150.5 318.7 150.5 317.2C150.5 313.8 148.3 311.5 145.5 311.5C143.4 311.5 140.9 313 139.2 315.9L133.3 326.1C131.1 324.9 129.9 322.8 129.9 320.7C129.9 318.9 130.7 317.2 132.3 315.9L131.1 313.7C128.4 315.6 127.2 318.2 127.2 320.8C127.2 323.8 128.9 326.7 132 328.3L130.9 330.3C128.2 334.9 129.8 340 135.2 340C139.4 340 142.6 338.1 145.2 335.6C144.4 338 145.6 340 148.3 340C149.8 340 151.7 339 153.6 337.5C153.8 339 155 340 156.9 340C158.7 340 160.7 338.9 162.6 337.2L161.2 339.6H165L170.8 329.5C176.6 322.2 179.2 323.2 177.5 326L172.6 334.6C171 337.4 172.1 340 175.2 340C177.2 340 179.5 338.6 181.7 336.6C181.2 338.7 182.2 340 184.1 340C185.9 340 188 338.5 189.7 336.9L187.6 340.5C182.5 342 179.2 344.1 179.2 347C179.2 350.6 184.8 351.4 187.5 346.7L190.4 341.7C193.6 340.7 196.7 338.7 200 335.5C199.5 340.8 206.5 342 210.8 336.6H211.6C213 336.6 214.9 336.1 216.6 335.1L214.1 339.5H217.9L223.7 329.4C229.5 322.1 232.1 323.1 230.4 325.9L225.5 334.5C223.9 337.3 225 339.9 228.1 339.9C231.2 339.9 234.8 336.5 238 332.9C237.9 332.6 237.2 332 236.7 331.8ZM142.3 317.6C143.4 315.7 144.7 314.8 145.7 314.8C147.1 314.8 147.8 315.7 147.8 317.1C147.8 320.6 143.5 327 137.6 327H136.8L142.3 317.6ZM155.7 332.4C153.4 336 151.1 337.7 149.6 337.7C148.8 337.7 148.3 337.1 149.2 335.6L154.5 326.4C156.5 322.9 160.6 323.8 158.7 327.2L155.7 332.4ZM184.5 346.2C183.7 347.6 182.4 347.4 182.4 346.4C182.4 345.4 183.3 344.3 186.2 343.2L184.5 346.2ZM210.1 332H209.9C208.7 332 207.7 333 207.7 334.3C207.7 334.8 207.8 335.2 208.1 335.6V335.7C206.3 338.8 202 338.2 204.2 334.2L207.1 329.2L208.9 326.1C211.6 321.6 215.2 323.4 212.9 327.3L210.1 332Z" fill="white"/>
<path d="M324.6 333.1C324.4 332.5 323.7 331.9 323.2 331.8L322.9 332.1C321.5 333.7 319.8 335.2 318.3 336.2C319.5 332.6 319.2 327 321.6 322.2L318.8 320.7C317.2 322.9 313.8 327.8 310.4 331.8L310.1 332.1C307.4 335.3 304.7 337.8 303 337.8C302.2 337.8 301.4 337 301.4 335.2V333.6C304.1 333.9 306.9 332.2 308.7 329.1L309.7 327.3C313.2 321.2 307.5 319.2 303.6 322.8L309 313.4H305.2L294.4 332.2C294.2 332 293.9 331.8 293.7 331.7L293.4 332C290.7 335.2 287.2 337.7 284.5 337.7C282.2 337.7 280.8 336.2 282.5 333.2L286.4 326.4C288.6 322.6 292.5 323.3 290.2 327.2L289.7 328.1H292.8L293.3 327.2C295.3 323.7 293.4 321.1 290.3 321.1C287.2 321.1 284.8 322.7 283.2 325.5L279.5 331.9C279.4 331.9 279.3 331.8 279.3 331.8L279 332.1C276.3 335.3 273.6 337.8 271.9 337.8C271.1 337.8 270.6 337.2 271.5 335.7L279.6 321.5H275.8L269.1 333.3C266.2 335.9 264 337.4 263.3 337.1C262.4 336.7 263.3 335.3 263.8 334.5L271.2 321.6H267.4L260 334.3C259.2 335 258.3 335.7 257.6 336.3C258.8 332.7 258.5 327.1 260.9 322.3L258.1 320.8C256.5 323 247.8 334.6 244.3 338.6C244.6 339.1 245.2 339.5 245.7 339.9C247.9 337.4 255.1 328.1 256.4 326.3C254.9 330.2 255.7 337.3 252.1 337.3C250.8 337.3 250.3 335.9 250.3 335.9L247.9 337.1C247.9 337.1 248.6 340.2 252.1 340.2C252.5 340.2 252.8 340.2 253.2 340.1H253.3C255.2 339.8 257.1 339 258.9 337.7C258.9 339.2 259.8 340.2 261.4 340.2C263.5 340.2 265.8 338.3 267.6 336.6C267.2 338.6 268.4 340.2 270.8 340.2C273.2 340.2 275.8 338.3 278.3 335.8C278.3 338.3 280.3 340.2 283.4 340.2C286.5 340.2 289.5 338.5 292.2 336.2L290.1 339.9H293.9L298.2 332.4V335.4C298.2 338.6 298.8 340.3 301.9 340.3C305 340.3 308.6 336.9 311.8 333.3C314 330.8 315.8 328.2 317.2 326.4C315.7 330.3 316.5 337.4 312.9 337.4C311.6 337.4 311.1 336 311.1 336L308.7 337.2C308.7 337.2 309.4 340.3 312.9 340.3C313.3 340.3 313.6 340.3 314 340.2H314.1C317.9 339.5 321.8 336.4 324.6 333.1ZM299.4 330.1L300.5 328.2C304.9 322.1 307.9 323.8 306.5 326.1L304.7 329.2C303.6 331.2 300.3 332.6 299.4 330.1Z" fill="white"/>
<path d="M324.5 335.7C323.3 335.7 322.3 336.7 322.3 337.9C322.3 339.1 323.2 340.1 324.5 340.1C325.7 340.1 326.7 339.2 326.7 337.9C326.7 336.7 325.7 335.7 324.5 335.7Z" fill="white"/>
<path d="M324.7 334.2H328.5L340.4 313.5H336.6L324.7 334.2Z" fill="white"/>
<path d="M80.4 277.6C80.4 277.9 80.3 278.2 80.2 278.5C80.1 278.8 79.9 279.1 79.7 279.3C79.5 279.5 79.2 279.7 78.9 279.9C78.6 280 78.2 280.1 77.8 280.1C77.3 280.1 76.9 280 76.5 279.8C76.1 279.6 75.7 279.4 75.4 279.1C75.1 278.8 75 278.5 74.8 278.1C74.7 277.7 74.6 277.3 74.6 276.8C74.6 275.9 74.8 275.2 75.1 274.4C75.4 273.7 75.8 273 76.4 272.5C76.6 272.3 76.9 272 77.2 271.8C77.5 271.6 77.8 271.4 78.1 271.3C78.4 271.2 78.6 271 78.8 270.9C79 270.8 79.1 270.8 79.2 270.7L80.6 272.7C80.4 272.8 80.1 272.9 79.8 273.1C79.5 273.2 79.2 273.4 78.9 273.6C78.6 273.8 78.4 274.1 78.2 274.4C78 274.7 77.9 275 77.9 275.4C78.6 275.4 79.1 275.6 79.6 276C80.2 276.3 80.4 276.9 80.4 277.6ZM88.3 277.6C88.3 277.9 88.2 278.2 88.1 278.5C88 278.8 87.8 279.1 87.6 279.3C87.4 279.5 87.1 279.7 86.8 279.9C86.5 280 86.1 280.1 85.7 280.1C85.2 280.1 84.8 280 84.4 279.8C84 279.6 83.6 279.4 83.3 279.1C83.1 278.8 82.9 278.5 82.7 278.1C82.6 277.7 82.5 277.3 82.5 276.8C82.5 275.9 82.7 275.2 83 274.4C83.3 273.7 83.7 273 84.3 272.5C84.5 272.3 84.8 272 85.1 271.8C85.4 271.6 85.7 271.4 86 271.3C86.3 271.2 86.5 271 86.7 270.9C86.9 270.8 87 270.8 87.1 270.7L88.5 272.7C88.3 272.8 88 272.9 87.7 273.1C87.4 273.2 87.1 273.4 86.8 273.6C86.5 273.8 86.3 274.1 86.1 274.4C85.9 274.7 85.8 275 85.8 275.4C86.5 275.4 87 275.6 87.5 276C88 276.3 88.3 276.9 88.3 277.6Z" fill="white"/>
<path d="M353.4 336.5C353.4 336.2 353.5 335.9 353.6 335.6C353.7 335.3 353.9 335 354.1 334.8C354.3 334.6 354.6 334.4 354.9 334.2C355.2 334.1 355.6 334 356 334C356.5 334 356.9 334.1 357.3 334.3C357.7 334.5 358.1 334.7 358.4 335C358.7 335.3 358.8 335.6 359 336C359.1 336.4 359.2 336.8 359.2 337.3C359.2 338.2 359 338.9 358.7 339.7C358.4 340.4 358 341.1 357.4 341.6C357.2 341.8 356.9 342.1 356.6 342.3C356.3 342.5 356 342.7 355.7 342.8C355.4 342.9 355.2 343.1 355 343.2C354.8 343.3 354.7 343.3 354.6 343.4L353.2 341.4C353.4 341.3 353.7 341.2 354 341C354.3 340.9 354.6 340.7 354.9 340.5C355.2 340.3 355.4 340 355.6 339.7C355.8 339.4 355.9 339.1 355.9 338.7C355.2 338.7 354.7 338.5 354.2 338.1C353.7 337.8 353.4 337.2 353.4 336.5ZM345.6 336.5C345.6 336.2 345.7 335.9 345.8 335.6C345.9 335.3 346.1 335 346.3 334.8C346.5 334.6 346.8 334.4 347.1 334.2C347.4 334.1 347.8 334 348.2 334C348.7 334 349.1 334.1 349.5 334.3C349.9 334.5 350.3 334.7 350.6 335C350.8 335.3 351 335.6 351.2 336C351.3 336.4 351.4 336.8 351.4 337.3C351.4 338.2 351.2 338.9 350.9 339.7C350.6 340.4 350.2 341.1 349.6 341.6C349.4 341.8 349.1 342.1 348.8 342.3C348.5 342.5 348.2 342.7 347.9 342.8C347.6 342.9 347.4 343.1 347.2 343.2C347 343.3 346.9 343.3 346.8 343.4L345.4 341.4C345.7 341.3 345.9 341.2 346.2 341C346.5 340.9 346.8 340.7 347.1 340.5C347.4 340.3 347.6 340 347.8 339.7C348 339.4 348.1 339.1 348.1 338.7C347.4 338.7 346.9 338.5 346.4 338.1C345.8 337.8 345.6 337.2 345.6 336.5Z" fill="white"/>
</svg>
