<svg viewBox="0 0 78 72" fill="none" xmlns="http://www.w3.org/2000/svg"><path d="M30.878 64.939h16.499V41.17H30.878v23.768Zm13.508-2.884H33.87v-18h10.414v18h.103Z" fill="#81B3D2"/><path d="m75.321 39.182 2.166-2.088-10.209-9.845V.398h-14.23v13.127L38.921 0 .46 37.193l2.166 2.089 8.043-7.757v37.591H6.646V72h65.891v-2.884h-5.259v-37.69l8.043 7.756ZM56.04 3.382h8.146v20.983l-8.147-7.857V3.381Zm8.249 65.635H13.76V28.54l25.16-24.364L64.185 28.54v40.476h.103Z" fill="#81B3D2"/><path d="M31.188 27.05c0 4.275 3.609 7.756 7.94 7.756 4.434 0 8.043-3.48 8.043-7.757 0-4.276-3.61-7.657-8.043-7.657-4.434 0-7.94 3.38-7.94 7.657Zm7.94-4.973c2.784 0 5.155 2.188 5.155 4.972 0 2.685-2.268 4.972-5.155 4.972-2.784 0-5.156-2.187-5.156-4.972 0-2.685 2.372-4.972 5.156-4.972ZM20.98 41.17h-3.094v3.88h3.093v-3.88ZM27.063 41.17H23.97v3.88h3.093v-3.88ZM20.98 47.139h-3.094v3.878h3.093V47.14ZM27.063 47.139H23.97v3.878h3.093V47.14ZM53.873 41.17H50.78v3.88h3.093v-3.88ZM60.06 41.17h-3.093v3.88h3.093v-3.88ZM53.873 47.139H50.78v3.878h3.093V47.14ZM60.06 47.139h-3.093v3.878h3.093V47.14Z" fill="#81B3D2"/></svg>